<?xml version="1.0" encoding="UTF-8" standalone="no"?>
<!DOCTYPE svg PUBLIC "-//W3C//DTD SVG 1.1//EN"
 "http://www.w3.org/Graphics/SVG/1.1/DTD/svg11.dtd">
<!-- Generated by graphviz version 2.36.0 (20140111.2315)
 -->
<!-- Title: controllers_diagram Pages: 1 -->
<svg width="508pt" height="350pt"
 viewBox="0.00 0.00 508.00 350.00" xmlns="http://www.w3.org/2000/svg" xmlns:xlink="http://www.w3.org/1999/xlink">
<g id="graph0" class="graph" transform="scale(1 1) rotate(0) translate(4 346)">
<title>controllers_diagram</title>
<polygon fill="white" stroke="none" points="-4,4 -4,-346 504,-346 504,4 -4,4"/>
<!-- _diagram_info -->
<g id="node1" class="node"><title>_diagram_info</title>
<text text-anchor="start" x="294" y="-327.6" font-family="Times,serif" font-size="13.00">Controllers diagram</text>
<text text-anchor="start" x="294" y="-313.6" font-family="Times,serif" font-size="13.00">Date: Aug 07 2014 &#45; 20:55</text>
<text text-anchor="start" x="294" y="-299.6" font-family="Times,serif" font-size="13.00">Migration version: 20140808013650</text>
<text text-anchor="start" x="294" y="-285.6" font-family="Times,serif" font-size="13.00">Generated by RailRoady 1.1.1</text>
<text text-anchor="start" x="294" y="-271.6" font-family="Times,serif" font-size="13.00">http://railroady.prestonlee.com</text>
</g>
<!-- ApplicationController -->
<g id="node2" class="node"><title>ApplicationController</title>
<path fill="none" stroke="black" d="M12,-69.322C12,-69.322 124,-69.322 124,-69.322 130,-69.322 136,-75.322 136,-81.322 136,-81.322 136,-151.322 136,-151.322 136,-157.322 130,-163.322 124,-163.322 124,-163.322 12,-163.322 12,-163.322 6,-163.322 -1.42109e-14,-157.322 -1.42109e-14,-151.322 -1.42109e-14,-151.322 -1.42109e-14,-81.322 -1.42109e-14,-81.322 -1.42109e-14,-75.322 6,-69.322 12,-69.322"/>
<text text-anchor="middle" x="68" y="-148.122" font-family="Times,serif" font-size="14.00">ApplicationController</text>
<polyline fill="none" stroke="black" points="-1.42109e-14,-140.322 136,-140.322 "/>
<polyline fill="none" stroke="black" points="-1.42109e-14,-116.322 136,-116.322 "/>
<polyline fill="none" stroke="black" points="-1.42109e-14,-92.322 136,-92.322 "/>
<text text-anchor="start" x="8" y="-77.122" font-family="Times,serif" font-size="14.00">_layout</text>
</g>
<!-- CoursesController -->
<g id="node3" class="node"><title>CoursesController</title>
<path fill="none" stroke="black" d="M158.152,-0.5C158.152,-0.5 250.152,-0.5 250.152,-0.5 256.152,-0.5 262.152,-6.5 262.152,-12.5 262.152,-12.5 262.152,-201.5 262.152,-201.5 262.152,-207.5 256.152,-213.5 250.152,-213.5 250.152,-213.5 158.152,-213.5 158.152,-213.5 152.152,-213.5 146.152,-207.5 146.152,-201.5 146.152,-201.5 146.152,-12.5 146.152,-12.5 146.152,-6.5 152.152,-0.5 158.152,-0.5"/>
<text text-anchor="middle" x="204.152" y="-198.3" font-family="Times,serif" font-size="14.00">CoursesController</text>
<polyline fill="none" stroke="black" points="146.152,-190.5 262.152,-190.5 "/>
<text text-anchor="start" x="154.152" y="-175.3" font-family="Times,serif" font-size="14.00">create</text>
<text text-anchor="start" x="154.152" y="-160.3" font-family="Times,serif" font-size="14.00">destroy</text>
<text text-anchor="start" x="154.152" y="-145.3" font-family="Times,serif" font-size="14.00">edit</text>
<text text-anchor="start" x="154.152" y="-130.3" font-family="Times,serif" font-size="14.00">index</text>
<text text-anchor="start" x="154.152" y="-115.3" font-family="Times,serif" font-size="14.00">new</text>
<text text-anchor="start" x="154.152" y="-100.3" font-family="Times,serif" font-size="14.00">show</text>
<text text-anchor="start" x="154.152" y="-85.3" font-family="Times,serif" font-size="14.00">update</text>
<polyline fill="none" stroke="black" points="146.152,-77.5 262.152,-77.5 "/>
<polyline fill="none" stroke="black" points="146.152,-53.5 262.152,-53.5 "/>
<text text-anchor="start" x="154.152" y="-38.3" font-family="Times,serif" font-size="14.00">_layout</text>
<text text-anchor="start" x="154.152" y="-23.3" font-family="Times,serif" font-size="14.00">course_params</text>
<text text-anchor="start" x="154.152" y="-8.3" font-family="Times,serif" font-size="14.00">set_course</text>
</g>
<!-- ApplicationController&#45;&gt;CoursesController -->
<g id="edge1" class="edge"><title>ApplicationController&#45;&gt;CoursesController</title>
<path fill="none" stroke="black" d="M136.076,-111.661C139.4,-111.433 142.724,-111.206 146.016,-110.98"/>
</g>
</g>
</svg>
