<?xml version="1.0" encoding="UTF-8" standalone="no"?>
<!DOCTYPE svg PUBLIC "-//W3C//DTD SVG 1.1//EN"
 "http://www.w3.org/Graphics/SVG/1.1/DTD/svg11.dtd">
<!-- Generated by graphviz version 2.36.0 (20140111.2315)
 -->
<!-- Title: models_diagram Pages: 1 -->
<svg width="741pt" height="940pt"
 viewBox="0.00 0.00 741.23 940.00" xmlns="http://www.w3.org/2000/svg" xmlns:xlink="http://www.w3.org/1999/xlink">
<g id="graph0" class="graph" transform="scale(1 1) rotate(0) translate(4 936)">
<title>models_diagram</title>
<polygon fill="white" stroke="none" points="-4,4 -4,-936 737.232,-936 737.232,4 -4,4"/>
<!-- _diagram_info -->
<g id="node1" class="node"><title>_diagram_info</title>
<text text-anchor="start" x="155.232" y="-917.6" font-family="Times,serif" font-size="13.00">Models diagram</text>
<text text-anchor="start" x="155.232" y="-903.6" font-family="Times,serif" font-size="13.00">Date: Aug 07 2014 &#45; 20:55</text>
<text text-anchor="start" x="155.232" y="-889.6" font-family="Times,serif" font-size="13.00">Migration version: 20140808013650</text>
<text text-anchor="start" x="155.232" y="-875.6" font-family="Times,serif" font-size="13.00">Generated by RailRoady 1.1.1</text>
<text text-anchor="start" x="155.232" y="-861.6" font-family="Times,serif" font-size="13.00">http://railroady.prestonlee.com</text>
</g>
<!-- Course -->
<g id="node2" class="node"><title>Course</title>
<path fill="none" stroke="black" d="M347.232,-711C347.232,-711 461.232,-711 461.232,-711 467.232,-711 473.232,-717 473.232,-723 473.232,-723 473.232,-805 473.232,-805 473.232,-811 467.232,-817 461.232,-817 461.232,-817 347.232,-817 347.232,-817 341.232,-817 335.232,-811 335.232,-805 335.232,-805 335.232,-723 335.232,-723 335.232,-717 341.232,-711 347.232,-711"/>
<text text-anchor="middle" x="404.232" y="-801.8" font-family="Times,serif" font-size="14.00">Course</text>
<polyline fill="none" stroke="black" points="335.232,-794 473.232,-794 "/>
<text text-anchor="start" x="343.232" y="-778.8" font-family="Times,serif" font-size="14.00">id :integer</text>
<text text-anchor="start" x="343.232" y="-763.8" font-family="Times,serif" font-size="14.00">name :text</text>
<text text-anchor="start" x="343.232" y="-748.8" font-family="Times,serif" font-size="14.00">enrollment_id :integer</text>
<text text-anchor="start" x="343.232" y="-733.8" font-family="Times,serif" font-size="14.00">created_at :datetime</text>
<text text-anchor="start" x="343.232" y="-718.8" font-family="Times,serif" font-size="14.00">updated_at :datetime</text>
</g>
<!-- CourseRequirement -->
<g id="node3" class="node"><title>CourseRequirement</title>
<path fill="none" stroke="black" d="M63.7324,-227C63.7324,-227 164.732,-227 164.732,-227 170.732,-227 176.732,-233 176.732,-239 176.732,-239 176.732,-291 176.732,-291 176.732,-297 170.732,-303 164.732,-303 164.732,-303 63.7324,-303 63.7324,-303 57.7324,-303 51.7324,-297 51.7324,-291 51.7324,-291 51.7324,-239 51.7324,-239 51.7324,-233 57.7324,-227 63.7324,-227"/>
<text text-anchor="middle" x="114.232" y="-287.8" font-family="Times,serif" font-size="14.00">CourseRequirement</text>
<polyline fill="none" stroke="black" points="51.7324,-280 176.732,-280 "/>
<text text-anchor="start" x="59.7324" y="-264.8" font-family="Times,serif" font-size="14.00">id :integer</text>
<text text-anchor="start" x="59.7324" y="-249.8" font-family="Times,serif" font-size="14.00">skill_id :integer</text>
<text text-anchor="start" x="59.7324" y="-234.8" font-family="Times,serif" font-size="14.00">course_id :integer</text>
</g>
<!-- Course&#45;&gt;CourseRequirement -->
<g id="edge3" class="edge"><title>Course&#45;&gt;CourseRequirement</title>
<path fill="none" stroke="#b7ad9f" d="M327.459,-746.303C282.074,-733.119 226.07,-710.662 187.232,-674 87.1695,-579.543 95.864,-398.546 106.67,-313.001"/>
<ellipse fill="none" stroke="#b7ad9f" cx="331.375" cy="-747.41" rx="4.00001" ry="4.00001"/>
<polygon fill="#b7ad9f" stroke="#b7ad9f" points="106.674,-312.967 112.452,-303.647 107.332,-308.011 107.991,-303.054 107.991,-303.054 107.991,-303.054 107.332,-308.011 103.53,-302.462 106.674,-312.967 106.674,-312.967"/>
</g>
<!-- CourseTrack -->
<g id="node6" class="node"><title>CourseTrack</title>
<path fill="none" stroke="black" d="M139.232,-438C139.232,-438 229.232,-438 229.232,-438 235.232,-438 241.232,-444 241.232,-450 241.232,-450 241.232,-502 241.232,-502 241.232,-508 235.232,-514 229.232,-514 229.232,-514 139.232,-514 139.232,-514 133.232,-514 127.232,-508 127.232,-502 127.232,-502 127.232,-450 127.232,-450 127.232,-444 133.232,-438 139.232,-438"/>
<text text-anchor="middle" x="184.232" y="-498.8" font-family="Times,serif" font-size="14.00">CourseTrack</text>
<polyline fill="none" stroke="black" points="127.232,-491 241.232,-491 "/>
<text text-anchor="start" x="135.232" y="-475.8" font-family="Times,serif" font-size="14.00">id :integer</text>
<text text-anchor="start" x="135.232" y="-460.8" font-family="Times,serif" font-size="14.00">course_id :integer</text>
<text text-anchor="start" x="135.232" y="-445.8" font-family="Times,serif" font-size="14.00">track_id :integer</text>
</g>
<!-- Course&#45;&gt;CourseTrack -->
<g id="edge5" class="edge"><title>Course&#45;&gt;CourseTrack</title>
<path fill="none" stroke="#2ef33e" d="M327.576,-739.68C293.744,-725.719 256.281,-704.596 232.232,-674 198.47,-631.046 188.003,-567.766 184.994,-524.595"/>
<ellipse fill="none" stroke="#2ef33e" cx="331.469" cy="-741.239" rx="4.00001" ry="4.00001"/>
<polygon fill="#2ef33e" stroke="#2ef33e" points="184.979,-524.332 188.886,-514.085 184.686,-519.34 184.393,-514.349 184.393,-514.349 184.393,-514.349 184.686,-519.34 179.901,-514.612 184.979,-524.332 184.979,-524.332"/>
</g>
<!-- Track -->
<g id="node7" class="node"><title>Track</title>
<path fill="none" stroke="black" d="M253.732,-567C253.732,-567 360.732,-567 360.732,-567 366.732,-567 372.732,-573 372.732,-579 372.732,-579 372.732,-661 372.732,-661 372.732,-667 366.732,-673 360.732,-673 360.732,-673 253.732,-673 253.732,-673 247.732,-673 241.732,-667 241.732,-661 241.732,-661 241.732,-579 241.732,-579 241.732,-573 247.732,-567 253.732,-567"/>
<text text-anchor="middle" x="307.232" y="-657.8" font-family="Times,serif" font-size="14.00">Track</text>
<polyline fill="none" stroke="black" points="241.732,-650 372.732,-650 "/>
<text text-anchor="start" x="249.732" y="-634.8" font-family="Times,serif" font-size="14.00">id :integer</text>
<text text-anchor="start" x="249.732" y="-619.8" font-family="Times,serif" font-size="14.00">name :text</text>
<text text-anchor="start" x="249.732" y="-604.8" font-family="Times,serif" font-size="14.00">description :text</text>
<text text-anchor="start" x="249.732" y="-589.8" font-family="Times,serif" font-size="14.00">created_at :datetime</text>
<text text-anchor="start" x="249.732" y="-574.8" font-family="Times,serif" font-size="14.00">updated_at :datetime</text>
</g>
<!-- Course&#45;&gt;Track -->
<g id="edge6" class="edge"><title>Course&#45;&gt;Track</title>
<path fill="none" stroke="#3d6380" d="M362.857,-702.43C358.163,-695.558 353.377,-688.553 348.682,-681.679"/>
<polygon fill="#3d6380" stroke="#3d6380" points="363.023,-702.673 364.948,-713.469 365.844,-706.802 368.664,-710.931 368.664,-710.931 368.664,-710.931 365.844,-706.802 372.38,-708.392 363.023,-702.673 363.023,-702.673"/>
<polygon fill="#3d6380" stroke="#3d6380" points="348.437,-681.32 346.512,-670.525 345.617,-677.192 342.797,-673.063 342.797,-673.063 342.797,-673.063 345.617,-677.192 339.081,-675.601 348.437,-681.32 348.437,-681.32"/>
</g>
<!-- Enrollment -->
<g id="node8" class="node"><title>Enrollment</title>
<path fill="none" stroke="black" d="M609.732,-1C609.732,-1 716.732,-1 716.732,-1 722.732,-1 728.732,-7 728.732,-13 728.732,-13 728.732,-95 728.732,-95 728.732,-101 722.732,-107 716.732,-107 716.732,-107 609.732,-107 609.732,-107 603.732,-107 597.732,-101 597.732,-95 597.732,-95 597.732,-13 597.732,-13 597.732,-7 603.732,-1 609.732,-1"/>
<text text-anchor="middle" x="663.232" y="-91.8" font-family="Times,serif" font-size="14.00">Enrollment</text>
<polyline fill="none" stroke="black" points="597.732,-84 728.732,-84 "/>
<text text-anchor="start" x="605.732" y="-68.8" font-family="Times,serif" font-size="14.00">id :integer</text>
<text text-anchor="start" x="605.732" y="-53.8" font-family="Times,serif" font-size="14.00">course_id :integer</text>
<text text-anchor="start" x="605.732" y="-38.8" font-family="Times,serif" font-size="14.00">user_id :integer</text>
<text text-anchor="start" x="605.732" y="-23.8" font-family="Times,serif" font-size="14.00">created_at :datetime</text>
<text text-anchor="start" x="605.732" y="-8.8" font-family="Times,serif" font-size="14.00">updated_at :datetime</text>
</g>
<!-- Course&#45;&gt;Enrollment -->
<g id="edge1" class="edge"><title>Course&#45;&gt;Enrollment</title>
<path fill="none" stroke="#32747c" d="M453.381,-704.305C509.263,-633.775 597.948,-509.444 638.232,-386 667.609,-295.979 669.574,-185.154 667.214,-117.318"/>
<ellipse fill="none" stroke="#32747c" cx="450.57" cy="-707.832" rx="4.00002" ry="4.00002"/>
<polygon fill="#32747c" stroke="#32747c" points="667.21,-117.212 671.316,-107.044 667.014,-112.216 666.819,-107.22 666.819,-107.22 666.819,-107.22 667.014,-112.216 662.322,-107.396 667.21,-117.212 667.21,-117.212"/>
</g>
<!-- Skill -->
<g id="node10" class="node"><title>Skill</title>
<path fill="none" stroke="black" d="M347.732,-423C347.732,-423 454.732,-423 454.732,-423 460.732,-423 466.732,-429 466.732,-435 466.732,-435 466.732,-517 466.732,-517 466.732,-523 460.732,-529 454.732,-529 454.732,-529 347.732,-529 347.732,-529 341.732,-529 335.732,-523 335.732,-517 335.732,-517 335.732,-435 335.732,-435 335.732,-429 341.732,-423 347.732,-423"/>
<text text-anchor="middle" x="401.232" y="-513.8" font-family="Times,serif" font-size="14.00">Skill</text>
<polyline fill="none" stroke="black" points="335.732,-506 466.732,-506 "/>
<text text-anchor="start" x="343.732" y="-490.8" font-family="Times,serif" font-size="14.00">id :integer</text>
<text text-anchor="start" x="343.732" y="-475.8" font-family="Times,serif" font-size="14.00">name :text</text>
<text text-anchor="start" x="343.732" y="-460.8" font-family="Times,serif" font-size="14.00">description :text</text>
<text text-anchor="start" x="343.732" y="-445.8" font-family="Times,serif" font-size="14.00">created_at :datetime</text>
<text text-anchor="start" x="343.732" y="-430.8" font-family="Times,serif" font-size="14.00">updated_at :datetime</text>
</g>
<!-- Course&#45;&gt;Skill -->
<g id="edge4" class="edge"><title>Course&#45;&gt;Skill</title>
<path fill="none" stroke="#82bb80" d="M403.578,-700.586C403.077,-652.82 402.389,-587.243 401.888,-539.465"/>
<polygon fill="#82bb80" stroke="#82bb80" points="403.581,-700.876 399.186,-710.923 403.633,-705.876 403.686,-710.876 403.686,-710.876 403.686,-710.876 403.633,-705.876 408.185,-710.829 403.581,-700.876 403.581,-700.876"/>
<polygon fill="#82bb80" stroke="#82bb80" points="401.885,-539.248 406.28,-529.202 401.833,-534.249 401.78,-529.249 401.78,-529.249 401.78,-529.249 401.833,-534.249 397.281,-529.296 401.885,-539.248 401.885,-539.248"/>
</g>
<!-- User -->
<g id="node11" class="node"><title>User</title>
<path fill="none" stroke="black" d="M441.232,-144.5C441.232,-144.5 617.232,-144.5 617.232,-144.5 623.232,-144.5 629.232,-150.5 629.232,-156.5 629.232,-156.5 629.232,-373.5 629.232,-373.5 629.232,-379.5 623.232,-385.5 617.232,-385.5 617.232,-385.5 441.232,-385.5 441.232,-385.5 435.232,-385.5 429.232,-379.5 429.232,-373.5 429.232,-373.5 429.232,-156.5 429.232,-156.5 429.232,-150.5 435.232,-144.5 441.232,-144.5"/>
<text text-anchor="middle" x="529.232" y="-370.3" font-family="Times,serif" font-size="14.00">User</text>
<polyline fill="none" stroke="black" points="429.232,-362.5 629.232,-362.5 "/>
<text text-anchor="start" x="437.232" y="-347.3" font-family="Times,serif" font-size="14.00">id :integer</text>
<text text-anchor="start" x="437.232" y="-332.3" font-family="Times,serif" font-size="14.00">email :string</text>
<text text-anchor="start" x="437.232" y="-317.3" font-family="Times,serif" font-size="14.00">encrypted_password :string</text>
<text text-anchor="start" x="437.232" y="-302.3" font-family="Times,serif" font-size="14.00">reset_password_token :string</text>
<text text-anchor="start" x="437.232" y="-287.3" font-family="Times,serif" font-size="14.00">reset_password_sent_at :datetime</text>
<text text-anchor="start" x="437.232" y="-272.3" font-family="Times,serif" font-size="14.00">remember_created_at :datetime</text>
<text text-anchor="start" x="437.232" y="-257.3" font-family="Times,serif" font-size="14.00">sign_in_count :integer</text>
<text text-anchor="start" x="437.232" y="-242.3" font-family="Times,serif" font-size="14.00">current_sign_in_at :datetime</text>
<text text-anchor="start" x="437.232" y="-227.3" font-family="Times,serif" font-size="14.00">last_sign_in_at :datetime</text>
<text text-anchor="start" x="437.232" y="-212.3" font-family="Times,serif" font-size="14.00">current_sign_in_ip :string</text>
<text text-anchor="start" x="437.232" y="-197.3" font-family="Times,serif" font-size="14.00">last_sign_in_ip :string</text>
<text text-anchor="start" x="437.232" y="-182.3" font-family="Times,serif" font-size="14.00">enrollment_id :integer</text>
<text text-anchor="start" x="437.232" y="-167.3" font-family="Times,serif" font-size="14.00">created_at :datetime</text>
<text text-anchor="start" x="437.232" y="-152.3" font-family="Times,serif" font-size="14.00">updated_at :datetime</text>
</g>
<!-- Course&#45;&gt;User -->
<g id="edge2" class="edge"><title>Course&#45;&gt;User</title>
<path fill="none" stroke="#7146fe" d="M412.452,-701.045C420.276,-659.861 435.208,-606.17 463.232,-566 478.49,-544.13 498.502,-553.432 511.232,-530 533.151,-489.657 540.699,-440.577 541.756,-395.731"/>
<polygon fill="#7146fe" stroke="#7146fe" points="412.439,-701.123 406.231,-710.162 411.549,-706.043 410.659,-710.963 410.659,-710.963 410.659,-710.963 411.549,-706.043 415.087,-711.764 412.439,-701.123 412.439,-701.123"/>
<polygon fill="#7146fe" stroke="#7146fe" points="541.757,-395.634 546.388,-385.693 541.823,-390.634 541.888,-385.634 541.888,-385.634 541.888,-385.634 541.823,-390.634 537.389,-385.576 541.757,-395.634 541.757,-395.634"/>
</g>
<!-- UserTrack -->
<g id="node4" class="node"><title>UserTrack</title>
<path fill="none" stroke="black" d="M184.232,-16C184.232,-16 266.232,-16 266.232,-16 272.232,-16 278.232,-22 278.232,-28 278.232,-28 278.232,-80 278.232,-80 278.232,-86 272.232,-92 266.232,-92 266.232,-92 184.232,-92 184.232,-92 178.232,-92 172.232,-86 172.232,-80 172.232,-80 172.232,-28 172.232,-28 172.232,-22 178.232,-16 184.232,-16"/>
<text text-anchor="middle" x="225.232" y="-76.8" font-family="Times,serif" font-size="14.00">UserTrack</text>
<polyline fill="none" stroke="black" points="172.232,-69 278.232,-69 "/>
<text text-anchor="start" x="180.232" y="-53.8" font-family="Times,serif" font-size="14.00">id :integer</text>
<text text-anchor="start" x="180.232" y="-38.8" font-family="Times,serif" font-size="14.00">user_id :integer</text>
<text text-anchor="start" x="180.232" y="-23.8" font-family="Times,serif" font-size="14.00">track_id :integer</text>
</g>
<!-- TrackRequirement -->
<g id="node5" class="node"><title>TrackRequirement</title>
<path fill="none" stroke="black" d="M265.732,-227C265.732,-227 360.732,-227 360.732,-227 366.732,-227 372.732,-233 372.732,-239 372.732,-239 372.732,-291 372.732,-291 372.732,-297 366.732,-303 360.732,-303 360.732,-303 265.732,-303 265.732,-303 259.732,-303 253.732,-297 253.732,-291 253.732,-291 253.732,-239 253.732,-239 253.732,-233 259.732,-227 265.732,-227"/>
<text text-anchor="middle" x="313.232" y="-287.8" font-family="Times,serif" font-size="14.00">TrackRequirement</text>
<polyline fill="none" stroke="black" points="253.732,-280 372.732,-280 "/>
<text text-anchor="start" x="261.732" y="-264.8" font-family="Times,serif" font-size="14.00">id :integer</text>
<text text-anchor="start" x="261.732" y="-249.8" font-family="Times,serif" font-size="14.00">skill_id :integer</text>
<text text-anchor="start" x="261.732" y="-234.8" font-family="Times,serif" font-size="14.00">track_id :integer</text>
</g>
<!-- Track&#45;&gt;UserTrack -->
<g id="edge12" class="edge"><title>Track&#45;&gt;UserTrack</title>
<path fill="none" stroke="#0c571a" d="M287.344,-559.046C272.779,-512.424 253.93,-445.826 244.232,-386 228.004,-285.891 225.114,-166.792 224.889,-102.263"/>
<ellipse fill="none" stroke="#0c571a" cx="288.625" cy="-563.116" rx="4.00001" ry="4.00001"/>
<polygon fill="#0c571a" stroke="#0c571a" points="224.889,-102.006 229.375,-91.9992 224.882,-97.0056 224.875,-92.0056 224.875,-92.0056 224.875,-92.0056 224.882,-97.0056 220.375,-92.0121 224.889,-102.006 224.889,-102.006"/>
</g>
<!-- Track&#45;&gt;TrackRequirement -->
<g id="edge15" class="edge"><title>Track&#45;&gt;TrackRequirement</title>
<path fill="none" stroke="#c17975" d="M308.258,-558.659C309.438,-489.223 311.352,-376.644 312.429,-313.263"/>
<ellipse fill="none" stroke="#c17975" cx="308.186" cy="-562.914" rx="4" ry="4"/>
<polygon fill="#c17975" stroke="#c17975" points="312.431,-313.15 317.1,-303.228 312.516,-308.151 312.601,-303.152 312.601,-303.152 312.601,-303.152 312.516,-308.151 308.102,-303.075 312.431,-313.15 312.431,-313.15"/>
</g>
<!-- Track&#45;&gt;CourseTrack -->
<g id="edge14" class="edge"><title>Track&#45;&gt;CourseTrack</title>
<path fill="none" stroke="#b8164a" d="M256.775,-560.749C245.651,-547.906 234.028,-534.487 223.427,-522.249"/>
<ellipse fill="none" stroke="#b8164a" cx="259.511" cy="-563.907" rx="4.00002" ry="4.00002"/>
<polygon fill="#b8164a" stroke="#b8164a" points="223.172,-521.955 220.026,-511.45 219.898,-518.175 216.625,-514.396 216.625,-514.396 216.625,-514.396 219.898,-518.175 213.223,-517.342 223.172,-521.955 223.172,-521.955"/>
</g>
<!-- Track&#45;&gt;Skill -->
<g id="edge16" class="edge"><title>Track&#45;&gt;Skill</title>
<path fill="none" stroke="#8c922f" d="M347.328,-558.43C351.877,-551.558 356.514,-544.553 361.065,-537.679"/>
<polygon fill="#8c922f" stroke="#8c922f" points="347.221,-558.592 337.948,-564.447 344.461,-562.761 341.701,-566.931 341.701,-566.931 341.701,-566.931 344.461,-562.761 345.453,-569.415 347.221,-558.592 347.221,-558.592"/>
<polygon fill="#8c922f" stroke="#8c922f" points="361.248,-537.401 370.521,-531.547 364.008,-533.232 366.768,-529.063 366.768,-529.063 366.768,-529.063 364.008,-533.232 363.016,-526.579 361.248,-537.401 361.248,-537.401"/>
</g>
<!-- Track&#45;&gt;User -->
<g id="edge13" class="edge"><title>Track&#45;&gt;User</title>
<path fill="none" stroke="#8d988b" d="M382.379,-586.884C421.033,-568.915 462.641,-546.817 475.232,-530 503.902,-491.71 518.284,-441.892 525.218,-395.863"/>
<polygon fill="#8d988b" stroke="#8d988b" points="382.242,-586.947 371.277,-587.032 377.699,-589.034 373.155,-591.121 373.155,-591.121 373.155,-591.121 377.699,-589.034 375.034,-595.21 382.242,-586.947 382.242,-586.947"/>
<polygon fill="#8d988b" stroke="#8d988b" points="525.241,-395.701 531.084,-386.422 525.934,-390.75 526.627,-385.798 526.627,-385.798 526.627,-385.798 525.934,-390.75 522.171,-385.174 525.241,-395.701 525.241,-395.701"/>
</g>
<!-- UserRequirement -->
<g id="node9" class="node"><title>UserRequirement</title>
<path fill="none" stroke="black" d="M478.732,-16C478.732,-16 567.732,-16 567.732,-16 573.732,-16 579.732,-22 579.732,-28 579.732,-28 579.732,-80 579.732,-80 579.732,-86 573.732,-92 567.732,-92 567.732,-92 478.732,-92 478.732,-92 472.732,-92 466.732,-86 466.732,-80 466.732,-80 466.732,-28 466.732,-28 466.732,-22 472.732,-16 478.732,-16"/>
<text text-anchor="middle" x="523.232" y="-76.8" font-family="Times,serif" font-size="14.00">UserRequirement</text>
<polyline fill="none" stroke="black" points="466.732,-69 579.732,-69 "/>
<text text-anchor="start" x="474.732" y="-53.8" font-family="Times,serif" font-size="14.00">id :integer</text>
<text text-anchor="start" x="474.732" y="-38.8" font-family="Times,serif" font-size="14.00">skill_id :integer</text>
<text text-anchor="start" x="474.732" y="-23.8" font-family="Times,serif" font-size="14.00">user_id :integer</text>
</g>
<!-- Skill&#45;&gt;CourseRequirement -->
<g id="edge22" class="edge"><title>Skill&#45;&gt;CourseRequirement</title>
<path fill="none" stroke="#d4b555" d="M328.173,-438.136C300.965,-423.247 270.367,-405.078 244.232,-386 213.207,-363.352 181.469,-334.193 157.12,-310.29"/>
<ellipse fill="none" stroke="#d4b555" cx="331.864" cy="-440.139" rx="4.00002" ry="4.00002"/>
<polygon fill="#d4b555" stroke="#d4b555" points="156.916,-310.089 152.975,-299.856 153.363,-306.571 149.809,-303.054 149.809,-303.054 149.809,-303.054 153.363,-306.571 146.644,-306.252 156.916,-310.089 156.916,-310.089"/>
</g>
<!-- Skill&#45;&gt;TrackRequirement -->
<g id="edge23" class="edge"><title>Skill&#45;&gt;TrackRequirement</title>
<path fill="none" stroke="#971ac0" d="M376.067,-415.231C362.339,-382.627 345.596,-342.863 332.846,-312.582"/>
<ellipse fill="none" stroke="#971ac0" cx="377.701" cy="-419.113" rx="4.00002" ry="4.00002"/>
<polygon fill="#971ac0" stroke="#971ac0" points="332.736,-312.322 333.003,-301.359 330.796,-307.714 328.856,-303.105 328.856,-303.105 328.856,-303.105 330.796,-307.714 324.708,-304.852 332.736,-312.322 332.736,-312.322"/>
</g>
<!-- Skill&#45;&gt;UserRequirement -->
<g id="edge20" class="edge"><title>Skill&#45;&gt;UserRequirement</title>
<path fill="none" stroke="#68cf53" d="M391.189,-414.615C382.635,-345.422 377.638,-230.457 420.232,-144 429.082,-126.037 443.357,-110.216 458.496,-97.0853"/>
<ellipse fill="none" stroke="#68cf53" cx="391.736" cy="-418.854" rx="4.00001" ry="4.00001"/>
<polygon fill="#68cf53" stroke="#68cf53" points="458.774,-96.8549 469.342,-93.9295 462.621,-93.661 466.468,-90.4672 466.468,-90.4672 466.468,-90.4672 462.621,-93.661 463.593,-87.0049 458.774,-96.8549 458.774,-96.8549"/>
</g>
<!-- Skill&#45;&gt;User -->
<g id="edge21" class="edge"><title>Skill&#45;&gt;User</title>
<path fill="none" stroke="#8d7ff3" d="M438.428,-414.266C442.341,-407.878 446.416,-401.224 450.578,-394.427"/>
<polygon fill="#8d7ff3" stroke="#8d7ff3" points="438.425,-414.272 429.365,-420.449 435.813,-418.536 433.202,-422.8 433.202,-422.8 433.202,-422.8 435.813,-418.536 437.04,-425.15 438.425,-414.272 438.425,-414.272"/>
<polygon fill="#8d7ff3" stroke="#8d7ff3" points="450.669,-394.278 459.73,-388.101 453.281,-390.015 455.892,-385.751 455.892,-385.751 455.892,-385.751 453.281,-390.015 452.055,-383.4 450.669,-394.278 450.669,-394.278"/>
</g>
<!-- User&#45;&gt;UserTrack -->
<g id="edge27" class="edge"><title>User&#45;&gt;UserTrack</title>
<path fill="none" stroke="#b7b85b" d="M422.356,-173.985C408.762,-163.541 394.842,-153.308 381.232,-144 351.378,-123.581 316.548,-103.393 287.383,-87.4189"/>
<ellipse fill="none" stroke="#b7b85b" cx="425.837" cy="-176.678" rx="4.00002" ry="4.00002"/>
<polygon fill="#b7b85b" stroke="#b7b85b" points="287.31,-87.3792 280.675,-78.6481 282.917,-84.9902 278.525,-82.6012 278.525,-82.6012 278.525,-82.6012 282.917,-84.9902 276.375,-86.5543 287.31,-87.3792 287.31,-87.3792"/>
</g>
<!-- User&#45;&gt;Enrollment -->
<g id="edge25" class="edge"><title>User&#45;&gt;Enrollment</title>
<path fill="none" stroke="#e2fe45" d="M610.469,-137.295C615.206,-129.907 619.844,-122.673 624.281,-115.752"/>
<ellipse fill="none" stroke="#e2fe45" cx="608.175" cy="-140.874" rx="4.00002" ry="4.00002"/>
<polygon fill="#e2fe45" stroke="#e2fe45" points="624.39,-115.583 633.575,-109.594 627.088,-111.374 629.787,-107.165 629.787,-107.165 629.787,-107.165 627.088,-111.374 625.999,-104.736 624.39,-115.583 624.39,-115.583"/>
</g>
<!-- User&#45;&gt;UserRequirement -->
<g id="edge26" class="edge"><title>User&#45;&gt;UserRequirement</title>
<path fill="none" stroke="#9df228" d="M525.556,-135.927C525.219,-124.213 524.895,-112.916 524.601,-102.668"/>
<ellipse fill="none" stroke="#9df228" cx="525.679" cy="-140.243" rx="4" ry="4"/>
<polygon fill="#9df228" stroke="#9df228" points="524.593,-102.389 528.804,-92.2641 524.449,-97.3912 524.306,-92.3933 524.306,-92.3933 524.306,-92.3933 524.449,-97.3912 519.808,-92.5224 524.593,-102.389 524.593,-102.389"/>
</g>
<!-- ActiveRecord::Base -->
<g id="node12" class="node"><title>ActiveRecord::Base</title>
<ellipse fill="none" stroke="black" cx="460.232" cy="-893" rx="81.3646" ry="18"/>
<text text-anchor="middle" x="460.232" y="-889.3" font-family="Times,serif" font-size="14.00">ActiveRecord::Base</text>
</g>
<!-- ActiveRecord::Base&#45;&gt;Course -->
<g id="edge7" class="edge"><title>ActiveRecord::Base&#45;&gt;Course</title>
<path fill="none" stroke="black" d="M452.68,-874.872C446.142,-860.045 436.333,-837.8 427.248,-817.196"/>
</g>
<!-- ActiveRecord::Base&#45;&gt;CourseRequirement -->
<g id="edge8" class="edge"><title>ActiveRecord::Base&#45;&gt;CourseRequirement</title>
<path fill="none" stroke="black" d="M427.082,-876.387C410.072,-868.832 388.85,-860.102 369.232,-854 295.071,-830.934 256.596,-869.241 198.232,-818 46.8958,-685.134 85.8657,-404.385 105.931,-303.276"/>
</g>
<!-- ActiveRecord::Base&#45;&gt;UserTrack -->
<g id="edge9" class="edge"><title>ActiveRecord::Base&#45;&gt;UserTrack</title>
<path fill="none" stroke="black" d="M428.504,-876.429C411.331,-868.6 389.53,-859.608 369.232,-854 261.454,-824.22 210.688,-883.734 120.232,-818 41.2832,-760.628 23.2324,-718.594 23.2324,-621 23.2324,-621 23.2324,-621 23.2324,-475 23.2324,-327.647 -39.4721,-266.627 42.2324,-144 71.6161,-99.8991 129.394,-76.9232 172.203,-65.4573"/>
</g>
<!-- ActiveRecord::Base&#45;&gt;TrackRequirement -->
<g id="edge10" class="edge"><title>ActiveRecord::Base&#45;&gt;TrackRequirement</title>
<path fill="none" stroke="black" d="M471.948,-874.986C481.133,-860.553 493.176,-838.916 498.232,-818 521.027,-723.712 501.723,-466.65 475.232,-422 460.326,-396.874 442.367,-405.067 420.232,-386 391.154,-360.951 362.444,-328.192 342.095,-303.231"/>
</g>
<!-- ActiveRecord::Base&#45;&gt;CourseTrack -->
<g id="edge11" class="edge"><title>ActiveRecord::Base&#45;&gt;CourseTrack</title>
<path fill="none" stroke="black" d="M423.963,-876.876C378.708,-857.829 305.93,-826.553 295.232,-818 232.748,-768.043 213.108,-749.7 187.232,-674 169.033,-620.757 172.984,-554.597 178.133,-514.105"/>
</g>
<!-- ActiveRecord::Base&#45;&gt;Track -->
<g id="edge17" class="edge"><title>ActiveRecord::Base&#45;&gt;Track</title>
<path fill="none" stroke="black" d="M424.408,-876.819C388.884,-861 338.087,-836.047 326.232,-818 298.124,-775.21 296.299,-715.494 299.684,-673.051"/>
</g>
<!-- ActiveRecord::Base&#45;&gt;Enrollment -->
<g id="edge18" class="edge"><title>ActiveRecord::Base&#45;&gt;Enrollment</title>
<path fill="none" stroke="black" d="M522.909,-881.427C564.552,-871.467 617.873,-852.672 653.232,-818 720.706,-751.837 733.232,-715.5 733.232,-621 733.232,-621 733.232,-621 733.232,-475 733.232,-341.016 698.143,-186.22 677.652,-107.245"/>
</g>
<!-- ActiveRecord::Base&#45;&gt;UserRequirement -->
<g id="edge19" class="edge"><title>ActiveRecord::Base&#45;&gt;UserRequirement</title>
<path fill="none" stroke="black" d="M502.002,-877.564C531.887,-865.497 571.413,-845.766 598.232,-818 666.035,-747.805 695.232,-718.594 695.232,-621 695.232,-621 695.232,-621 695.232,-475 695.232,-325.724 716.746,-270.961 638.232,-144 624.019,-121.016 610.662,-124.464 589.232,-108 582.59,-102.897 575.634,-97.4384 568.832,-92.0363"/>
</g>
<!-- ActiveRecord::Base&#45;&gt;Skill -->
<g id="edge24" class="edge"><title>ActiveRecord::Base&#45;&gt;Skill</title>
<path fill="none" stroke="black" d="M466.829,-874.973C472.188,-860.175 479.318,-838.028 482.232,-818 489.144,-770.5 490.225,-757.33 482.232,-710 471.394,-645.813 444.87,-575.707 425.109,-529.338"/>
</g>
<!-- ActiveRecord::Base&#45;&gt;User -->
<g id="edge28" class="edge"><title>ActiveRecord::Base&#45;&gt;User</title>
<path fill="none" stroke="black" d="M497.984,-877.052C522.58,-865.092 552.708,-845.705 567.232,-818 638.095,-682.834 606.367,-502.834 572.091,-385.708"/>
</g>
</g>
</svg>
