<?xml version="1.0" encoding="UTF-8" standalone="no"?>
<!DOCTYPE svg PUBLIC "-//W3C//DTD SVG 1.1//EN"
 "http://www.w3.org/Graphics/SVG/1.1/DTD/svg11.dtd">
<!-- Generated by graphviz version 2.36.0 (20140111.2315)
 -->
<!-- Title: models_diagram Pages: 1 -->
<svg width="658pt" height="446pt"
 viewBox="0.00 0.00 658.25 446.00" xmlns="http://www.w3.org/2000/svg" xmlns:xlink="http://www.w3.org/1999/xlink">
<g id="graph0" class="graph" transform="scale(1 1) rotate(0) translate(4 442)">
<title>models_diagram</title>
<polygon fill="white" stroke="none" points="-4,4 -4,-442 654.246,-442 654.246,4 -4,4"/>
<!-- _diagram_info -->
<g id="node1" class="node"><title>_diagram_info</title>
<text text-anchor="start" x="73.2459" y="-423.6" font-family="Times,serif" font-size="13.00">Models diagram</text>
<text text-anchor="start" x="73.2459" y="-409.6" font-family="Times,serif" font-size="13.00">Date: Aug 07 2014 &#45; 20:55</text>
<text text-anchor="start" x="73.2459" y="-395.6" font-family="Times,serif" font-size="13.00">Migration version: 20140808013650</text>
<text text-anchor="start" x="73.2459" y="-381.6" font-family="Times,serif" font-size="13.00">Generated by RailRoady 1.1.1</text>
<text text-anchor="start" x="73.2459" y="-367.6" font-family="Times,serif" font-size="13.00">http://railroady.prestonlee.com</text>
</g>
<!-- Course -->
<g id="node2" class="node"><title>Course</title>
<ellipse fill="none" stroke="black" cx="323.246" cy="-306" rx="35.6194" ry="18"/>
<text text-anchor="middle" x="323.246" y="-302.3" font-family="Times,serif" font-size="14.00">Course</text>
</g>
<!-- CourseRequirement -->
<g id="node3" class="node"><title>CourseRequirement</title>
<ellipse fill="none" stroke="black" cx="111.246" cy="-90" rx="81.3646" ry="18"/>
<text text-anchor="middle" x="111.246" y="-86.3" font-family="Times,serif" font-size="14.00">CourseRequirement</text>
</g>
<!-- Course&#45;&gt;CourseRequirement -->
<g id="edge3" class="edge"><title>Course&#45;&gt;CourseRequirement</title>
<path fill="none" stroke="#4e0592" d="M282.438,-297.265C227.195,-284.237 131.576,-251.93 97.2459,-180 87.8665,-160.348 92.829,-135.749 99.3083,-117.396"/>
<ellipse fill="none" stroke="#4e0592" cx="286.383" cy="-298.163" rx="4.00001" ry="4.00001"/>
<polygon fill="#4e0592" stroke="#4e0592" points="99.3695,-117.238 107.179,-109.539 101.176,-112.576 102.983,-107.913 102.983,-107.913 102.983,-107.913 101.176,-112.576 98.7866,-106.287 99.3695,-117.238 99.3695,-117.238"/>
</g>
<!-- CourseTrack -->
<g id="node6" class="node"><title>CourseTrack</title>
<ellipse fill="none" stroke="black" cx="162.246" cy="-162" rx="55.3436" ry="18"/>
<text text-anchor="middle" x="162.246" y="-158.3" font-family="Times,serif" font-size="14.00">CourseTrack</text>
</g>
<!-- Course&#45;&gt;CourseTrack -->
<g id="edge5" class="edge"><title>Course&#45;&gt;CourseTrack</title>
<path fill="none" stroke="#4ce73e" d="M287.105,-292.166C265.657,-283.271 238.906,-269.816 219.246,-252 199.705,-234.292 184.14,-208.416 174.246,-189.125"/>
<ellipse fill="none" stroke="#4ce73e" cx="291.033" cy="-293.745" rx="4.00001" ry="4.00001"/>
<polygon fill="#4ce73e" stroke="#4ce73e" points="174.157,-188.946 173.758,-177.987 171.941,-184.464 169.724,-179.982 169.724,-179.982 169.724,-179.982 171.941,-184.464 165.69,-181.977 174.157,-188.946 174.157,-188.946"/>
</g>
<!-- Track -->
<g id="node7" class="node"><title>Track</title>
<ellipse fill="none" stroke="black" cx="259.246" cy="-234" rx="31.2965" ry="18"/>
<text text-anchor="middle" x="259.246" y="-230.3" font-family="Times,serif" font-size="14.00">Track</text>
</g>
<!-- Course&#45;&gt;Track -->
<g id="edge6" class="edge"><title>Course&#45;&gt;Track</title>
<path fill="none" stroke="#60ec60" d="M302.17,-281.948C295.239,-274.368 287.531,-265.937 280.581,-258.336"/>
<polygon fill="#60ec60" stroke="#60ec60" points="302.295,-282.084 305.721,-292.501 305.668,-285.775 309.042,-289.465 309.042,-289.465 309.042,-289.465 305.668,-285.775 312.363,-286.428 302.295,-282.084 302.295,-282.084"/>
<polygon fill="#60ec60" stroke="#60ec60" points="280.158,-257.872 276.731,-247.455 276.784,-254.182 273.41,-250.492 273.41,-250.492 273.41,-250.492 276.784,-254.182 270.089,-253.528 280.158,-257.872 280.158,-257.872"/>
</g>
<!-- Enrollment -->
<g id="node8" class="node"><title>Enrollment</title>
<ellipse fill="none" stroke="black" cx="600.246" cy="-18" rx="50.5427" ry="18"/>
<text text-anchor="middle" x="600.246" y="-14.3" font-family="Times,serif" font-size="14.00">Enrollment</text>
</g>
<!-- Course&#45;&gt;Enrollment -->
<g id="edge1" class="edge"><title>Course&#45;&gt;Enrollment</title>
<path fill="none" stroke="#81bedd" d="M345.744,-284.332C356.281,-274.587 368.969,-262.762 380.246,-252 446.407,-188.856 465.488,-175.456 527.246,-108 546.381,-87.0995 566.715,-62.0473 581.049,-43.8548"/>
<ellipse fill="none" stroke="#81bedd" cx="342.754" cy="-287.092" rx="4.00002" ry="4.00002"/>
<polygon fill="#81bedd" stroke="#81bedd" points="581.407,-43.397 591.115,-38.2973 584.489,-39.4601 587.572,-35.5232 587.572,-35.5232 587.572,-35.5232 584.489,-39.4601 584.029,-32.7491 581.407,-43.397 581.407,-43.397"/>
</g>
<!-- Skill -->
<g id="node10" class="node"><title>Skill</title>
<ellipse fill="none" stroke="black" cx="339.246" cy="-162" rx="26.949" ry="18"/>
<text text-anchor="middle" x="339.246" y="-158.3" font-family="Times,serif" font-size="14.00">Skill</text>
</g>
<!-- Course&#45;&gt;Skill -->
<g id="edge4" class="edge"><title>Course&#45;&gt;Skill</title>
<path fill="none" stroke="#7fa2db" d="M326.324,-277.679C329.163,-252.487 333.353,-215.295 336.186,-190.156"/>
<polygon fill="#7fa2db" stroke="#7fa2db" points="326.296,-277.934 320.704,-287.368 325.736,-282.903 325.176,-287.871 325.176,-287.871 325.176,-287.871 325.736,-282.903 329.648,-288.375 326.296,-277.934 326.296,-277.934"/>
<polygon fill="#7fa2db" stroke="#7fa2db" points="336.189,-190.126 341.781,-180.693 336.749,-185.158 337.309,-180.189 337.309,-180.189 337.309,-180.189 336.749,-185.158 332.837,-179.685 336.189,-190.126 336.189,-190.126"/>
</g>
<!-- User -->
<g id="node11" class="node"><title>User</title>
<ellipse fill="none" stroke="black" cx="491.246" cy="-90" rx="26.949" ry="18"/>
<text text-anchor="middle" x="491.246" y="-86.3" font-family="Times,serif" font-size="14.00">User</text>
</g>
<!-- Course&#45;&gt;User -->
<g id="edge2" class="edge"><title>Course&#45;&gt;User</title>
<path fill="none" stroke="#78cd7c" d="M337.833,-279.729C348.747,-261.475 364.453,-236.527 380.246,-216 393.481,-198.797 398.759,-196.163 413.246,-180 433.343,-157.578 455.993,-131.66 471.686,-113.597"/>
<polygon fill="#78cd7c" stroke="#78cd7c" points="337.823,-279.745 328.861,-286.063 335.279,-284.049 332.734,-288.353 332.734,-288.353 332.734,-288.353 335.279,-284.049 336.608,-290.643 337.823,-279.745 337.823,-279.745"/>
<polygon fill="#78cd7c" stroke="#78cd7c" points="471.819,-113.445 481.772,-108.841 475.096,-109.668 478.373,-105.892 478.373,-105.892 478.373,-105.892 475.096,-109.668 474.974,-102.942 471.819,-113.445 471.819,-113.445"/>
</g>
<!-- UserTrack -->
<g id="node4" class="node"><title>UserTrack</title>
<ellipse fill="none" stroke="black" cx="226.246" cy="-18" rx="48.1437" ry="18"/>
<text text-anchor="middle" x="226.246" y="-14.3" font-family="Times,serif" font-size="14.00">UserTrack</text>
</g>
<!-- TrackRequirement -->
<g id="node5" class="node"><title>TrackRequirement</title>
<ellipse fill="none" stroke="black" cx="331.246" cy="-90" rx="77.0154" ry="18"/>
<text text-anchor="middle" x="331.246" y="-86.3" font-family="Times,serif" font-size="14.00">TrackRequirement</text>
</g>
<!-- Track&#45;&gt;UserTrack -->
<g id="edge12" class="edge"><title>Track&#45;&gt;UserTrack</title>
<path fill="none" stroke="#32f3a8" d="M255.34,-207.67C249.086,-167.116 236.878,-87.9488 230.444,-46.2266"/>
<ellipse fill="none" stroke="#32f3a8" cx="255.991" cy="-211.896" rx="4.00001" ry="4.00001"/>
<polygon fill="#32f3a8" stroke="#32f3a8" points="230.427,-46.1156 233.351,-35.5466 229.665,-41.174 228.903,-36.2325 228.903,-36.2325 228.903,-36.2325 229.665,-41.174 224.456,-36.9183 230.427,-46.1156 230.427,-46.1156"/>
</g>
<!-- Track&#45;&gt;TrackRequirement -->
<g id="edge15" class="edge"><title>Track&#45;&gt;TrackRequirement</title>
<path fill="none" stroke="#db7deb" d="M270.746,-209.303C279.525,-191.321 291.987,-166.023 303.246,-144 307.72,-135.248 312.704,-125.739 317.213,-117.224"/>
<ellipse fill="none" stroke="#db7deb" cx="268.976" cy="-212.935" rx="4.00002" ry="4.00002"/>
<polygon fill="#db7deb" stroke="#db7deb" points="317.356,-116.955 326.023,-110.237 319.703,-112.54 322.049,-108.125 322.049,-108.125 322.049,-108.125 319.703,-112.54 318.076,-106.013 317.356,-116.955 317.356,-116.955"/>
</g>
<!-- Track&#45;&gt;CourseTrack -->
<g id="edge14" class="edge"><title>Track&#45;&gt;CourseTrack</title>
<path fill="none" stroke="#92c379" d="M233.744,-214.596C221.035,-205.425 205.585,-194.276 192.303,-184.691"/>
<ellipse fill="none" stroke="#92c379" cx="237.3" cy="-217.163" rx="4.00002" ry="4.00002"/>
<polygon fill="#92c379" stroke="#92c379" points="192.048,-184.507 186.572,-175.006 187.994,-181.581 183.939,-178.655 183.939,-178.655 183.939,-178.655 187.994,-181.581 181.306,-182.304 192.048,-184.507 192.048,-184.507"/>
</g>
<!-- Track&#45;&gt;Skill -->
<g id="edge16" class="edge"><title>Track&#45;&gt;Skill</title>
<path fill="none" stroke="#7614ec" d="M283.506,-211.772C293.753,-202.807 305.639,-192.406 315.796,-183.518"/>
<polygon fill="#7614ec" stroke="#7614ec" points="283.348,-211.911 272.859,-215.109 279.585,-215.203 275.822,-218.496 275.822,-218.496 275.822,-218.496 279.585,-215.203 278.785,-221.883 283.348,-211.911 283.348,-211.911"/>
<polygon fill="#7614ec" stroke="#7614ec" points="315.982,-183.356 326.471,-180.158 319.745,-180.064 323.508,-176.771 323.508,-176.771 323.508,-176.771 319.745,-180.064 320.544,-173.384 315.982,-183.356 315.982,-183.356"/>
</g>
<!-- Track&#45;&gt;User -->
<g id="edge13" class="edge"><title>Track&#45;&gt;User</title>
<path fill="none" stroke="#065ceb" d="M293.78,-219.635C317.405,-209.917 349.064,-195.748 375.246,-180 409.342,-159.492 445.174,-130.73 467.833,-111.512"/>
<polygon fill="#065ceb" stroke="#065ceb" points="293.776,-219.636 282.818,-219.22 289.142,-221.513 284.507,-223.39 284.507,-223.39 284.507,-223.39 289.142,-221.513 286.197,-227.561 293.776,-219.636 293.776,-219.636"/>
<polygon fill="#065ceb" stroke="#065ceb" points="467.962,-111.401 478.485,-108.314 471.76,-108.148 475.557,-104.896 475.557,-104.896 475.557,-104.896 471.76,-108.148 472.63,-101.478 467.962,-111.401 467.962,-111.401"/>
</g>
<!-- UserRequirement -->
<g id="node9" class="node"><title>UserRequirement</title>
<ellipse fill="none" stroke="black" cx="458.246" cy="-18" rx="73.1654" ry="18"/>
<text text-anchor="middle" x="458.246" y="-14.3" font-family="Times,serif" font-size="14.00">UserRequirement</text>
</g>
<!-- Skill&#45;&gt;CourseRequirement -->
<g id="edge22" class="edge"><title>Skill&#45;&gt;CourseRequirement</title>
<path fill="none" stroke="#1b8af3" d="M306.89,-151.066C270.351,-139.848 210.269,-121.402 166.312,-107.906"/>
<ellipse fill="none" stroke="#1b8af3" cx="311.022" cy="-152.335" rx="4.00001" ry="4.00001"/>
<polygon fill="#1b8af3" stroke="#1b8af3" points="166.192,-107.869 157.953,-100.633 161.412,-106.402 156.632,-104.934 156.632,-104.934 156.632,-104.934 161.412,-106.402 155.311,-109.236 166.192,-107.869 166.192,-107.869"/>
</g>
<!-- Skill&#45;&gt;TrackRequirement -->
<g id="edge23" class="edge"><title>Skill&#45;&gt;TrackRequirement</title>
<path fill="none" stroke="#725aa4" d="M336.348,-135.64C335.694,-129.92 334.998,-123.828 334.336,-118.042"/>
<ellipse fill="none" stroke="#725aa4" cx="336.814" cy="-139.722" rx="4.00001" ry="4.00001"/>
<polygon fill="#725aa4" stroke="#725aa4" points="334.336,-118.04 337.672,-107.593 333.768,-113.072 333.201,-108.104 333.201,-108.104 333.201,-108.104 333.768,-113.072 328.73,-108.615 334.336,-118.04 334.336,-118.04"/>
</g>
<!-- Skill&#45;&gt;UserRequirement -->
<g id="edge20" class="edge"><title>Skill&#45;&gt;UserRequirement</title>
<path fill="none" stroke="#766508" d="M367.63,-146.754C383.831,-137.49 403.572,-124.141 417.246,-108 432.719,-89.735 443.569,-64.6604 450.204,-45.7801"/>
<ellipse fill="none" stroke="#766508" cx="363.97" cy="-148.78" rx="4.00002" ry="4.00002"/>
<polygon fill="#766508" stroke="#766508" points="450.21,-45.7621 457.644,-37.7005 451.792,-41.0191 453.375,-36.2762 453.375,-36.2762 453.375,-36.2762 451.792,-41.0191 449.106,-34.8518 450.21,-45.7621 450.21,-45.7621"/>
</g>
<!-- Skill&#45;&gt;User -->
<g id="edge21" class="edge"><title>Skill&#45;&gt;User</title>
<path fill="none" stroke="#eb7d0c" d="M370.457,-146.626C396.764,-134.511 434.203,-117.27 460.405,-105.203"/>
<polygon fill="#eb7d0c" stroke="#eb7d0c" points="370.107,-146.788 359.141,-146.883 365.565,-148.879 361.024,-150.971 361.024,-150.971 361.024,-150.971 365.565,-148.879 362.906,-155.058 370.107,-146.788 370.107,-146.788"/>
<polygon fill="#eb7d0c" stroke="#eb7d0c" points="460.425,-105.194 471.391,-105.098 464.967,-103.102 469.508,-101.011 469.508,-101.011 469.508,-101.011 464.967,-103.102 467.626,-96.9233 460.425,-105.194 460.425,-105.194"/>
</g>
<!-- User&#45;&gt;UserTrack -->
<g id="edge27" class="edge"><title>User&#45;&gt;UserTrack</title>
<path fill="none" stroke="#2295b9" d="M458.523,-80.3562C412.33,-68.1543 327.696,-45.7983 274.343,-31.7048"/>
<ellipse fill="none" stroke="#2295b9" cx="462.448" cy="-81.393" rx="4.00001" ry="4.00001"/>
<polygon fill="#2295b9" stroke="#2295b9" points="274.104,-31.6418 265.585,-24.737 269.27,-30.3648 264.435,-29.0878 264.435,-29.0878 264.435,-29.0878 269.27,-30.3648 263.286,-33.4386 274.104,-31.6418 274.104,-31.6418"/>
</g>
<!-- User&#45;&gt;Enrollment -->
<g id="edge25" class="edge"><title>User&#45;&gt;Enrollment</title>
<path fill="none" stroke="#21c386" d="M517.122,-72.3822C532.445,-62.5419 551.982,-49.9949 568.266,-39.5378"/>
<ellipse fill="none" stroke="#21c386" cx="513.598" cy="-74.6454" rx="4.00002" ry="4.00002"/>
<polygon fill="#21c386" stroke="#21c386" points="568.515,-39.3775 579.361,-37.7602 572.722,-36.6757 576.93,-33.9738 576.93,-33.9738 576.93,-33.9738 572.722,-36.6757 574.498,-30.1874 568.515,-39.3775 568.515,-39.3775"/>
</g>
<!-- User&#45;&gt;UserRequirement -->
<g id="edge26" class="edge"><title>User&#45;&gt;UserRequirement</title>
<path fill="none" stroke="#17d7ed" d="M479.961,-65.0625C476.93,-58.6325 473.637,-51.6473 470.553,-45.106"/>
<ellipse fill="none" stroke="#17d7ed" cx="481.72" cy="-68.7929" rx="4.00002" ry="4.00002"/>
<polygon fill="#17d7ed" stroke="#17d7ed" points="470.504,-45.0015 470.31,-34.0373 468.372,-40.4788 466.24,-35.9562 466.24,-35.9562 466.24,-35.9562 468.372,-40.4788 462.169,-37.8751 470.504,-45.0015 470.504,-45.0015"/>
</g>
<!-- ActiveRecord::Base -->
<g id="node12" class="node"><title>ActiveRecord::Base</title>
<ellipse fill="none" stroke="black" cx="378.246" cy="-399" rx="81.3646" ry="18"/>
<text text-anchor="middle" x="378.246" y="-395.3" font-family="Times,serif" font-size="14.00">ActiveRecord::Base</text>
</g>
<!-- ActiveRecord::Base&#45;&gt;Course -->
<g id="edge7" class="edge"><title>ActiveRecord::Base&#45;&gt;Course</title>
<path fill="none" stroke="black" d="M367.901,-380.884C357.943,-364.408 342.989,-339.666 333.174,-323.427"/>
</g>
<!-- ActiveRecord::Base&#45;&gt;CourseRequirement -->
<g id="edge8" class="edge"><title>ActiveRecord::Base&#45;&gt;CourseRequirement</title>
<path fill="none" stroke="black" d="M341.393,-382.805C295.398,-363.68 221.386,-332.319 210.246,-324 143.036,-273.812 117.122,-258.754 88.2459,-180 79.2909,-155.577 91.064,-126.173 100.8,-108.033"/>
</g>
<!-- ActiveRecord::Base&#45;&gt;UserTrack -->
<g id="edge9" class="edge"><title>ActiveRecord::Base&#45;&gt;UserTrack</title>
<path fill="none" stroke="black" d="M344.058,-382.566C327.151,-375.232 306.326,-366.639 287.246,-360 156.614,-314.544 2.2459,-373.314 2.2459,-235 2.2459,-235 2.2459,-235 2.2459,-161 2.2459,-120.553 -6.7377,-101.204 21.2459,-72 43.1184,-49.1737 128.14,-33.0952 181.581,-25.0013"/>
</g>
<!-- ActiveRecord::Base&#45;&gt;TrackRequirement -->
<g id="edge10" class="edge"><title>ActiveRecord::Base&#45;&gt;TrackRequirement</title>
<path fill="none" stroke="black" d="M382.058,-380.874C390.596,-338.765 408.049,-227.534 375.246,-144 369.826,-130.197 359.333,-117.331 349.954,-107.732"/>
</g>
<!-- ActiveRecord::Base&#45;&gt;CourseTrack -->
<g id="edge11" class="edge"><title>ActiveRecord::Base&#45;&gt;CourseTrack</title>
<path fill="none" stroke="black" d="M344.275,-382.566C299.896,-360.466 223.478,-315.363 186.246,-252 172.869,-229.234 166.765,-198.842 164.117,-180.112"/>
</g>
<!-- ActiveRecord::Base&#45;&gt;Track -->
<g id="edge17" class="edge"><title>ActiveRecord::Base&#45;&gt;Track</title>
<path fill="none" stroke="black" d="M346.293,-382.387C323.8,-369.734 294.848,-349.786 278.246,-324 264.048,-301.948 260.274,-271.073 259.375,-252.089"/>
</g>
<!-- ActiveRecord::Base&#45;&gt;Enrollment -->
<g id="edge18" class="edge"><title>ActiveRecord::Base&#45;&gt;Enrollment</title>
<path fill="none" stroke="black" d="M435.762,-386.226C507.899,-367.71 622.246,-324.279 622.246,-235 622.246,-235 622.246,-235 622.246,-161 622.246,-115.597 611.126,-62.9798 604.698,-36.3545"/>
</g>
<!-- ActiveRecord::Base&#45;&gt;UserRequirement -->
<g id="edge19" class="edge"><title>ActiveRecord::Base&#45;&gt;UserRequirement</title>
<path fill="none" stroke="black" d="M424.733,-384.164C485.491,-362.874 584.246,-315.836 584.246,-235 584.246,-235 584.246,-235 584.246,-161 584.246,-102.828 524.352,-57.3706 487.153,-34.7474"/>
</g>
<!-- ActiveRecord::Base&#45;&gt;Skill -->
<g id="edge24" class="edge"><title>ActiveRecord::Base&#45;&gt;Skill</title>
<path fill="none" stroke="black" d="M377.169,-380.769C375.663,-359.043 372.506,-320.589 367.246,-288 360.939,-248.92 349.866,-203.753 343.703,-179.858"/>
</g>
<!-- ActiveRecord::Base&#45;&gt;User -->
<g id="edge28" class="edge"><title>ActiveRecord::Base&#45;&gt;User</title>
<path fill="none" stroke="black" d="M384.754,-380.974C390.466,-365.99 398.974,-343.571 406.246,-324 436.317,-243.073 471.424,-145.987 485.233,-107.694"/>
</g>
</g>
</svg>
